<?xml version="1.0" encoding="UTF-8" standalone="no"?>
<!-- Created with Inkscape (http://www.inkscape.org/) -->

<svg
   xmlns:dc="http://purl.org/dc/elements/1.1/"
   xmlns:cc="http://creativecommons.org/ns#"
   xmlns:rdf="http://www.w3.org/1999/02/22-rdf-syntax-ns#"
   xmlns:svg="http://www.w3.org/2000/svg"
   xmlns="http://www.w3.org/2000/svg"
   xmlns:xlink="http://www.w3.org/1999/xlink"
   xmlns:sodipodi="http://sodipodi.sourceforge.net/DTD/sodipodi-0.dtd"
   xmlns:inkscape="http://www.inkscape.org/namespaces/inkscape"
   id="svg6346"
   sodipodi:version="0.32"
   inkscape:version="0.47 r22583"
   width="1920"
   height="1200"
   version="1.0"
   sodipodi:docname="sidux-moros.svg"
   inkscape:output_extension="org.inkscape.output.svg.inkscape"
   inkscape:export-filename="/home/klaymen/Desktop/test.png"
   inkscape:export-xdpi="90"
   inkscape:export-ydpi="90">
  <sodipodi:namedview
     pagecolor="#ffffff"
     bordercolor="#666666"
     borderopacity="1"
     objecttolerance="10"
     gridtolerance="10"
     guidetolerance="10"
     inkscape:pageopacity="0"
     inkscape:pageshadow="2"
     inkscape:window-width="1680"
     inkscape:window-height="1005"
     id="namedview6348"
     showgrid="false"
     inkscape:zoom="0.5"
     inkscape:cx="853.18838"
     inkscape:cy="653.60717"
     inkscape:window-x="-4"
     inkscape:window-y="-3"
     inkscape:current-layer="layer7"
     inkscape:window-maximized="1"
     showguides="true"
     inkscape:guide-bbox="true" />
  <metadata
     id="metadata6352">
    <rdf:RDF>
      <cc:Work
         rdf:about="">
        <dc:format>image/svg+xml</dc:format>
        <dc:type
           rdf:resource="http://purl.org/dc/dcmitype/StillImage" />
        <dc:title></dc:title>
      </cc:Work>
    </rdf:RDF>
  </metadata>
  <defs
     id="defs6350">
    <linearGradient
       id="linearGradient4176">
      <stop
         id="stop4178"
         offset="0"
         style="stop-color:#000000;stop-opacity:0;" />
      <stop
         id="stop4180"
         offset="1"
         style="stop-color:#000000;stop-opacity:0.8125;" />
    </linearGradient>
    <linearGradient
       id="linearGradient3591">
      <stop
         style="stop-color:#8d0006;stop-opacity:1;"
         offset="0"
         id="stop3593" />
      <stop
         style="stop-color:#000000;stop-opacity:1;"
         offset="1"
         id="stop3595" />
    </linearGradient>
    <linearGradient
       id="linearGradient3151">
      <stop
         style="stop-color:#000000;stop-opacity:1;"
         offset="0"
         id="stop3153" />
      <stop
         style="stop-color:#000000;stop-opacity:0;"
         offset="1"
         id="stop3155" />
    </linearGradient>
    <inkscape:perspective
       id="perspective6354"
       inkscape:persp3d-origin="0.5 : 0.33333333 : 1"
       inkscape:vp_z="1 : 0.5 : 1"
       inkscape:vp_y="0 : 1000 : 0"
       inkscape:vp_x="0 : 0.5 : 1"
       sodipodi:type="inkscape:persp3d" />
    <inkscape:perspective
       id="perspective3611"
       inkscape:persp3d-origin="0.5 : 0.33333333 : 1"
       inkscape:vp_z="1 : 0.5 : 1"
       inkscape:vp_y="0 : 1000 : 0"
       inkscape:vp_x="0 : 0.5 : 1"
       sodipodi:type="inkscape:persp3d" />
    <radialGradient
       inkscape:collect="always"
       xlink:href="#linearGradient3591-8"
       id="radialGradient3599-2"
       cx="958"
       cy="600"
       fx="958"
       fy="600"
       r="960.5"
       gradientTransform="matrix(1,0,0,0.62519521,0,224.88287)"
       gradientUnits="userSpaceOnUse" />
    <linearGradient
       id="linearGradient3591-8">
      <stop
         style="stop-color:#8d0006;stop-opacity:1;"
         offset="0"
         id="stop3593-9" />
      <stop
         style="stop-color:#000000;stop-opacity:1;"
         offset="1"
         id="stop3595-7" />
    </linearGradient>
    <radialGradient
       r="960.5"
       fy="600"
       fx="958"
       cy="600"
       cx="958"
       gradientTransform="matrix(1,0,0,0.62519521,2.5,224.38287)"
       gradientUnits="userSpaceOnUse"
       id="radialGradient3620"
       xlink:href="#linearGradient3591-8"
       inkscape:collect="always" />
    <inkscape:perspective
       id="perspective3667"
       inkscape:persp3d-origin="0.5 : 0.33333333 : 1"
       inkscape:vp_z="1 : 0.5 : 1"
       inkscape:vp_y="0 : 1000 : 0"
       inkscape:vp_x="0 : 0.5 : 1"
       sodipodi:type="inkscape:persp3d" />
    <linearGradient
       inkscape:collect="always"
       xlink:href="#linearGradient3651-6"
       id="linearGradient3657-3"
       x1="-116.5"
       y1="805.69629"
       x2="2090.5276"
       y2="805.69629"
       gradientUnits="userSpaceOnUse"
       gradientTransform="translate(12,250)" />
    <linearGradient
       id="linearGradient3651-6">
      <stop
         style="stop-color:#000000;stop-opacity:1;"
         offset="0"
         id="stop3653-1" />
      <stop
         style="stop-color:#000000;stop-opacity:0;"
         offset="1"
         id="stop3655-2" />
    </linearGradient>
    <linearGradient
       y2="805.69629"
       x2="2090.5276"
       y1="805.69629"
       x1="-116.5"
       gradientTransform="translate(8.98615,160.30373)"
       gradientUnits="userSpaceOnUse"
       id="linearGradient3676"
       xlink:href="#linearGradient3651-6"
       inkscape:collect="always" />
    <inkscape:perspective
       id="perspective3724"
       inkscape:persp3d-origin="0.5 : 0.33333333 : 1"
       inkscape:vp_z="1 : 0.5 : 1"
       inkscape:vp_y="0 : 1000 : 0"
       inkscape:vp_x="0 : 0.5 : 1"
       sodipodi:type="inkscape:persp3d" />
    <linearGradient
       y2="805.69629"
       x2="2090.5276"
       y1="805.69629"
       x1="-116.5"
       gradientTransform="translate(8.98615,160.30373)"
       gradientUnits="userSpaceOnUse"
       id="linearGradient3676-6"
       xlink:href="#linearGradient3651-6-4"
       inkscape:collect="always" />
    <linearGradient
       id="linearGradient3651-6-4">
      <stop
         style="stop-color:#000000;stop-opacity:1;"
         offset="0"
         id="stop3653-1-0" />
      <stop
         style="stop-color:#000000;stop-opacity:0;"
         offset="1"
         id="stop3655-2-9" />
    </linearGradient>
    <linearGradient
       y2="805.69629"
       x2="2090.5276"
       y1="805.69629"
       x1="-116.5"
       gradientTransform="matrix(0.9143808,-0.40485522,0.40485522,0.9143808,-182.69685,64.884508)"
       gradientUnits="userSpaceOnUse"
       id="linearGradient3733"
       xlink:href="#linearGradient3651-6-4"
       inkscape:collect="always" />
    <radialGradient
       inkscape:collect="always"
       xlink:href="#linearGradient4176"
       id="radialGradient4174"
       cx="960"
       cy="600"
       fx="960"
       fy="600"
       r="957.50922"
       gradientTransform="matrix(1,0,0,0.62402451,0,225.5853)"
       gradientUnits="userSpaceOnUse" />
    <inkscape:perspective
       id="perspective4902"
       inkscape:persp3d-origin="0.5 : 0.33333333 : 1"
       inkscape:vp_z="1 : 0.5 : 1"
       inkscape:vp_y="0 : 1000 : 0"
       inkscape:vp_x="0 : 0.5 : 1"
       sodipodi:type="inkscape:persp3d" />
    <filter
       inkscape:collect="always"
       id="filter4928"
       x="-0.035307668"
       width="1.0706153"
       y="-0.26589567"
       height="1.5317913">
      <feGaussianBlur
         inkscape:collect="always"
         stdDeviation="8.1308497"
         id="feGaussianBlur4930" />
    </filter>
    <inkscape:perspective
       id="perspective2867"
       inkscape:persp3d-origin="0.5 : 0.33333333 : 1"
       inkscape:vp_z="1 : 0.5 : 1"
       inkscape:vp_y="0 : 1000 : 0"
       inkscape:vp_x="0 : 0.5 : 1"
       sodipodi:type="inkscape:persp3d" />
  </defs>
  <g
     inkscape:groupmode="layer"
     id="layer1"
     inkscape:label="Layer"
     style="display:inline"
     sodipodi:insensitive="true">
    <rect
       style="fill:url(#radialGradient3620);fill-opacity:1;fill-rule:evenodd;stroke:#000000;stroke-width:1px;stroke-linecap:butt;stroke-linejoin:miter;stroke-opacity:1"
       id="rect2817"
       width="1920"
       height="1200"
       x="0.5"
       y="-0.5" />
  </g>
  <g
     inkscape:groupmode="layer"
     id="layer7"
     inkscape:label="Layer#6"
     style="display:inline;opacity:0.18421053">
    <path
       transform="matrix(2.069364,0,0,2.069364,-700.25027,-502.31416)"
       d="m 777.81744,521.17749 c 12.4359,9.92689 -7.24581,21.66092 -16.49914,20.66928 -25.07595,-2.68728 -32.52514,-33.58449 -24.83942,-53.66757 13.74794,-35.92392 58.89452,-45.01695 90.83601,-29.00956 46.87542,23.4915 57.83144,84.53071 33.17969,128.00444 -32.85691,57.94365 -110.28042,70.78056 -165.17287,37.34983 -69.07655,-42.06917 -83.79874,-136.08369 -41.51996,-202.3413 51.20526,-80.24685 161.91701,-96.85681 239.50972,-45.6901 91.44033,60.29819 109.93993,187.76907 49.86024,276.67816 C 873.80736,755.81974 729.53809,776.21034 629.32512,707.20104 515.45677,628.78828 493.17398,467.6941 571.12461,356.18602 658.57344,231.0908 836.51129,206.91493 959.30806,293.81538 1095.6358,390.29134 1121.7055,585.08662 1025.8488,719.16726 920.35241,866.7317 708.6893,894.69583 563.32853,789.87817 404.524,675.3664 374.66495,446.82739 488.44748,290.18943 611.97059,120.14216 857.39185,88.387777 1025.3047,211.13824 c 103.869,75.93213 165.2472,200.33128 164.6609,328.74375"
       sodipodi:t0="0"
       sodipodi:argument="-18.175886"
       sodipodi:radius="412.57242"
       sodipodi:revolution="3.9000001"
       sodipodi:expansion="1"
       sodipodi:cy="521.17749"
       sodipodi:cx="777.81744"
       id="path3660"
       style="fill:none;stroke:#000000;stroke-width:85.40691728999998134;stroke-linecap:round;stroke-linejoin:round;stroke-miterlimit:4;stroke-opacity:1;stroke-dasharray:none"
       sodipodi:type="spiral" />
  </g>
  <g
     inkscape:groupmode="layer"
     id="layer2"
     inkscape:label="Layer#1"
     style="display:none">
    <path
       id="path4372"
       style="fill:none;stroke:#ffffff;stroke-width:1px;stroke-linecap:butt;stroke-linejoin:miter;stroke-opacity:1"
       d="m 468.6316,1921.4154 c 0,0 995.9917,-1341.24887 1451.3684,-1437.4154 M 470.6316,1927.4154 c 0,0 993.9917,-1347.24887 1449.3684,-1443.4154 M 472.6316,1933.4154 c 0,0 991.9917,-1353.24887 1447.3684,-1449.4154 M 474.6316,1939.4154 c 0,0 989.9917,-1359.24887 1445.3684,-1455.4154 M 476.6316,1945.4154 c 0,0 987.9917,-1365.24887 1443.3684,-1461.4154 M 478.6316,1951.4154 c 0,0 985.9917,-1371.24887 1441.3684,-1467.4154 M 480.6316,1957.4154 c 0,0 983.9917,-1377.24887 1439.3684,-1473.4154 M 482.6316,1963.4154 c 0,0 981.9917,-1383.24887 1437.3684,-1479.4154 M 484.6316,1969.4154 c 0,0 979.9917,-1389.24887 1435.3684,-1485.4154 M 486.6316,1975.4154 c 0,0 977.9917,-1395.24887 1433.3684,-1491.4154 M 488.6316,1981.4154 c 0,0 975.9917,-1401.24887 1431.3684,-1497.4154 M 490.6316,1987.4154 c 0,0 973.9917,-1407.24887 1429.3684,-1503.4154 M 492.6316,1993.4154 c 0,0 971.9917,-1413.24887 1427.3684,-1509.4154 M 494.6316,1999.4154 c 0,0 969.9917,-1419.24887 1425.3684,-1515.4154 M 496.6316,2005.4154 c 0,0 967.9917,-1425.24887 1423.3684,-1521.4154 M 498.6316,2011.4154 c 0,0 965.9917,-1431.24887 1421.3684,-1527.4154 M 500.6316,2017.4154 c 0,0 963.9917,-1437.24887 1419.3684,-1533.4154"
       sodipodi:nodetypes="cccccccccccccccccccccccccccccccccc" />
    <path
       id="path3742"
       style="fill:none;stroke:#ffffff;stroke-width:1px;stroke-linecap:butt;stroke-linejoin:miter;stroke-opacity:1"
       d="m 26.690237,1454.4774 c 0,0 1574.724163,-906.49502 2278.935763,-828.4774 M 26.690237,1458.4774 c 0,0 1574.724163,-910.49502 2278.935763,-832.4774 M 26.690237,1450.4774 c 0,0 1574.724163,-902.49502 2278.935763,-824.4774 M 26.690237,1462.4774 c 0,0 1574.724163,-914.49502 2278.935763,-836.4774 M 26.690237,1466.4774 c 0,0 1574.724163,-918.49502 2278.935763,-840.4774 M 26.690237,1470.4774 c 0,0 1574.724163,-922.49502 2278.935763,-844.4774 M 26.690237,1474.4774 c 0,0 1574.724163,-926.49502 2278.935763,-848.4774 M 26.690237,1478.4774 c 0,0 1574.724163,-930.49502 2278.935763,-852.4774 M 26.690237,1482.4774 c 0,0 1574.724163,-934.49502 2278.935763,-856.4774 M 26.690237,1486.4774 c 0,0 1574.724163,-938.49502 2278.935763,-860.4774 M 26.690237,1490.4774 c 0,0 1574.724163,-942.49502 2278.935763,-864.4774 M 26.690237,1494.4774 c 0,0 1574.724163,-946.49502 2278.935763,-868.4774 M 26.690237,1498.4774 c 0,0 1574.724163,-950.49502 2278.935763,-872.4774 M 26.690237,1502.4774 c 0,0 1574.724163,-954.49502 2278.935763,-876.4774 M 26.690237,1506.4774 c 0,0 1574.724163,-958.49502 2278.935763,-880.4774 M 26.690237,1510.4774 c 0,0 1574.724163,-962.49502 2278.935763,-884.4774 M 26.690237,1514.4774 c 0,0 1574.724163,-966.49502 2278.935763,-888.4774 M 26.690237,1518.4774 c 0,0 1574.724163,-970.49502 2278.935763,-892.4774 M 26.690237,1522.4774 c 0,0 1574.724163,-974.49502 2278.935763,-896.4774 M 26.690237,1526.4774 c 0,0 1574.724163,-978.49502 2278.935763,-900.4774 M 26.690237,1530.4774 c 0,0 1574.724163,-982.49502 2278.935763,-904.4774 M 26.690237,1534.4774 c 0,0 1574.724163,-986.49502 2278.935763,-908.4774 M 26.690237,1538.4774 c 0,0 1574.724163,-990.49502 2278.935763,-912.4774 M 26.690237,1542.4774 c 0,0 1574.724163,-994.49502 2278.935763,-916.4774 M 26.690237,1546.4774 c 0,0 1574.724163,-998.49502 2278.935763,-920.4774 M 26.690237,1550.4774 c 0,0 1574.724163,-1002.49502 2278.935763,-924.4774 M 26.690237,1554.4774 c 0,0 1574.724163,-1006.49502 2278.935763,-928.4774 M 26.690237,1558.4774 c 0,0 1574.724163,-1010.49502 2278.935763,-932.4774 M 26.690237,1562.4774 c 0,0 1574.724163,-1014.49502 2278.935763,-936.4774 M 26.690237,1566.4774 c 0,0 1574.724163,-1018.49502 2278.935763,-940.4774 M 26.690237,1570.4774 c 0,0 1574.724163,-1022.49502 2278.935763,-944.4774 M 26.690237,1574.4774 c 0,0 1574.724163,-1026.49502 2278.935763,-948.4774 M 26.690237,1578.4774 c 0,0 1574.724163,-1030.49502 2278.935763,-952.4774 M 26.690237,1582.4774 c 0,0 1574.724163,-1034.49502 2278.935763,-956.4774 M 26.690237,1586.4774 c 0,0 1574.724163,-1038.49502 2278.935763,-960.4774 M 26.690237,1590.4774 c 0,0 1574.724163,-1042.49502 2278.935763,-964.4774 M 26.690237,1594.4774 c 0,0 1574.724163,-1046.49502 2278.935763,-968.4774 M 26.690237,1598.4774 c 0,0 1574.724163,-1050.49502 2278.935763,-972.4774 M 26.690237,1602.4774 c 0,0 1574.724163,-1054.49502 2278.935763,-976.4774 M 26.690237,1606.4774 c 0,0 1574.724163,-1058.49502 2278.935763,-980.4774 M 26.690237,1610.4774 c 0,0 1574.724163,-1062.49502 2278.935763,-984.4774 M 26.690237,1614.4774 c 0,0 1574.724163,-1066.49502 2278.935763,-988.4774 M 26.690237,1618.4774 c 0,0 1574.724163,-1070.49502 2278.935763,-992.4774 M 26.690237,1622.4774 c 0,0 1574.724163,-1074.49502 2278.935763,-996.4774 M 26.690237,1626.4774 c 0,0 1574.724163,-1078.49502 2278.935763,-1000.4774 M 26.690237,1630.4774 c 0,0 1574.724163,-1082.49502 2278.935763,-1004.4774 M 26.690237,1634.4774 c 0,0 1574.724163,-1086.49502 2278.935763,-1008.4774 M 26.690237,1638.4774 c 0,0 1574.724163,-1090.49502 2278.935763,-1012.4774 M 26.690237,1642.4774 c 0,0 1574.724163,-1094.49502 2278.935763,-1016.4774 M 26.690237,1646.4774 c 0,0 1574.724163,-1098.49502 2278.935763,-1020.4774 M 26.690237,1650.4774 c 0,0 1574.724163,-1102.49502 2278.935763,-1024.4774 M 26.690237,1654.4774 c 0,0 1574.724163,-1106.49502 2278.935763,-1028.4774 M 26.690237,1658.4774 c 0,0 1574.724163,-1110.49502 2278.935763,-1032.4774 M 26.690237,1662.4774 c 0,0 1574.724163,-1114.49502 2278.935763,-1036.4774 M 26.690237,1666.4774 c 0,0 1574.724163,-1118.49502 2278.935763,-1040.4774 M 26.690237,1670.4774 c 0,0 1574.724163,-1122.49502 2278.935763,-1044.4774 M 26.690237,1674.4774 c 0,0 1574.724163,-1126.49502 2278.935763,-1048.4774 M 26.690237,1678.4774 c 0,0 1574.724163,-1130.49502 2278.935763,-1052.4774 M 26.690237,1682.4774 c 0,0 1574.724163,-1134.49502 2278.935763,-1056.4774"
       sodipodi:nodetypes="cccccccccccccccccccccccccccccccccccccccccccccccccccccccccccccccccccccccccccccccccccccccccccccccccccccccccccccccccccccc" />
  </g>
  <g
     inkscape:groupmode="layer"
     id="layer4"
     inkscape:label="Layer#3"
     style="opacity:0.55592107;display:inline"
     sodipodi:insensitive="true">
    <path
       id="path4887"
       style="opacity:0.13486843;fill:none;stroke:#ffffff;stroke-width:2.60543108px;stroke-linecap:butt;stroke-linejoin:miter;stroke-opacity:1"
       d="m 2037.8599,-2459.5277 21.96,4888.8671 m -32.656,-4888.8671 21.9599,4888.8671 m -32.656,-4888.8671 21.96,4888.8671 m -32.656,-4888.8671 21.96,4888.8671 m -32.6561,-4888.8671 21.96,4888.8671 m -32.656,-4888.8671 21.96,4888.8671 m -32.656,-4888.8671 21.96,4888.8671 m -32.6561,-4888.8671 21.96,4888.8671 m -32.656,-4888.8671 21.96,4888.8671 m -32.656,-4888.8671 21.9599,4888.8671 m -32.656,-4888.8671 21.96,4888.8671 m -32.656,-4888.8671 21.96,4888.8671 m -32.656,-4888.8671 21.9599,4888.8671 m -32.656,-4888.8671 21.96,4888.8671 m -32.656,-4888.8671 21.96,4888.8671 m -32.6561,-4888.8671 21.96,4888.8671 m -32.656,-4888.8671 21.96,4888.8671 m -32.656,-4888.8671 21.9599,4888.8671 m -32.656,-4888.8671 21.96,4888.8671 m -32.656,-4888.8671 21.96,4888.8671 m -32.656,-4888.8671 21.9599,4888.8671 m -32.656,-4888.8671 21.96,4888.8671 m -32.656,-4888.8671 21.96,4888.8671 m -32.656,-4888.8671 21.9599,4888.8671 m -32.656,-4888.8671 21.96,4888.8671 m -32.656,-4888.8671 21.96,4888.8671 m -32.6561,-4888.8671 21.96,4888.8671 m -32.656,-4888.8671 21.96,4888.8671 m -32.656,-4888.8671 21.9599,4888.8671 m -32.656,-4888.8671 21.96,4888.8671 m -32.656,-4888.8671 21.96,4888.8671 m -32.656,-4888.8671 21.9599,4888.8671 m -32.656,-4888.8671 21.96,4888.8671 m -32.656,-4888.8671 21.96,4888.8671 m -32.6561,-4888.8671 21.9601,4888.8671 m -32.656,-4888.8671 21.96,4888.8671 m -32.656,-4888.8671 21.96,4888.8671 m -32.6561,-4888.8671 21.96,4888.8671 m -32.656,-4888.8671 21.96,4888.8671 m -32.656,-4888.8671 21.9599,4888.8671 m -32.656,-4888.8671 21.96,4888.8671 m -32.656,-4888.8671 21.96,4888.8671 m -32.656,-4888.8671 21.9599,4888.8671 m -32.6559,-4888.8671 21.9599,4888.8671 m -32.656,-4888.8671 21.96,4888.8671 m -32.656,-4888.8671 21.96,4888.8671 m -32.656,-4888.8671 21.9599,4888.8671 m -32.656,-4888.8671 21.96,4888.8671 m -32.656,-4888.8671 21.96,4888.8671 m -32.6561,-4888.8671 21.96,4888.8671 m -32.656,-4888.8671 21.96,4888.8671 m -32.656,-4888.8671 21.9599,4888.8671 m -32.6559,-4888.8671 21.9599,4888.8671 M 101.87731,-2459.5277 123.83729,2429.3394 M 91.181281,-2459.5277 113.14126,2429.3394 M 80.485251,-2459.5277 102.44523,2429.3394 m -32.656029,-4888.8671 21.95998,4888.8671 m -32.65601,-4888.8671 21.95998,4888.8671 m -32.65601,-4888.8671 21.95997,4888.8671 m -32.65602,-4888.8671 21.95999,4888.8671 m -32.65602,-4888.8671 21.95998,4888.8671 m -32.65601,-4888.8671 21.95997,4888.8671 M 5.6129908,-2459.5277 27.572971,2429.3394 M -5.0830492,-2459.5277 16.876921,2429.3394 M -15.779089,-2459.5277 6.1808908,2429.3394 M -26.475119,-2459.5277 -4.5151392,2429.3394 m -32.6560198,-4888.8671 21.95997,4888.8671 m -32.65601,-4888.8671 21.95998,4888.8671 m -32.65601,-4888.8671 21.95998,4888.8671 m -32.65603,-4888.8671 21.96,4888.8671 m -32.65603,-4888.8671 21.95998,4888.8671 m -32.65601,-4888.8671 21.95998,4888.8671 m -32.656031,-4888.8671 21.959991,4888.8671 m -32.656031,-4888.8671 21.959991,4888.8671 m -32.656011,-4888.8671 21.95997,4888.8671 m -32.65599,-4888.8671 21.96,4888.8671 m -32.65602,-4888.8671 21.96,4888.8671 m -32.65602,-4888.8671 21.95987,4888.8671 m -32.65602,-4888.8671 21.96,4888.8671 m -32.65602,-4888.8671 21.96,4888.8671 m -32.65602,-4888.8671 21.96,4888.8671 m -32.65602,-4888.8671 21.96,4888.8671 m -32.65602,-4888.8671 21.96,4888.8671 m -32.65602,-4888.8671 21.96,4888.8671 m -32.65602,-4888.8671 21.95987,4888.8671 m -32.65589,-4888.8671 21.95987,4888.8671 m -32.65602,-4888.8671 21.96,4888.8671 m -32.65602,-4888.8671 21.96,4888.8671 m -32.65602,-4888.8671 21.96,4888.8671 m -32.65602,-4888.8671 21.96,4888.8671 m -32.65602,-4888.8671 21.96,4888.8671 m -32.65602,-4888.8671 21.96001,4888.8671 m -32.65603,-4888.8671 21.95987,4888.8671 m -32.65589,-4888.8671 21.95987,4888.8671 m -32.65602,-4888.8671 21.96,4888.8671 m -32.65602,-4888.8671 21.96,4888.8671 m -32.65602,-4888.8671 21.96,4888.8671 m -32.65602,-4888.8671 21.96001,4888.8671 m -32.65603,-4888.8671 21.96001,4888.8671 m -32.65603,-4888.8671 21.96001,4888.8671 m -32.65599,-4888.8671 21.95983,4888.8671 m -32.65603,-4888.8671 21.96001,4888.8671 m -32.65601,-4888.8671 21.96,4888.8671 m -32.656,-4888.8671 21.96,4888.8671 m -32.656,-4888.8671 21.96,4888.8671 m -32.6561,-4888.8671 21.96,4888.8671 m -32.656,-4888.8671 21.96,4888.8671 m -32.656,-4888.8671 21.9599,4888.8671 m -32.6559,-4888.8671 21.9598,4888.8671 m -32.656,-4888.8671 21.96,4888.8671 m -32.65604,-4888.8671 21.96004,4888.8671 m -32.65604,-4888.8671 21.96004,4888.8671 m -32.65604,-4888.8671 21.96,4888.8671 m -32.6561,-4888.8671 21.96,4888.8671 m -32.656,-4888.8671 21.96,4888.8671 m -32.656,-4888.8671 21.9599,4888.8671 m -32.656,-4888.8671 21.96,4888.8671 m -32.6561,-4888.8671 21.96,4888.8671 m -32.656,-4888.8671 21.96,4888.8671 m -32.656,-4888.8671 21.96,4888.8671 m -32.65624,-4888.8671 21.96024,4888.8671 m -32.65624,-4888.8671 21.96024,4888.8671 m -32.65624,-4888.8671 21.96,4888.8671 m -32.656,-4888.8671 21.96,4888.8671 m -32.6562,-4888.8671 21.9602,4888.8671 m -32.6562,-4888.8671 21.9601,4888.8671 m -32.6561,-4888.8671 21.96,4888.8671 m -32.6558,-4888.8671 21.9598,4888.8671 m -32.6558,-4888.8671 21.9598,4888.8671 m -32.6558,-4888.8671 21.96,4888.8671 m -32.656,-4888.8671 21.96,4888.8671 m -32.656,-4888.8671 21.96,4888.8671 m -32.6562,-4888.8671 21.9601,4888.8671 m -32.6561,-4888.8671 21.96,4888.8671 m -32.656,-4888.8671 21.96,4888.8671 m -32.656,-4888.8671 21.96,4888.8671 m -32.6561,-4888.8671 21.96,4888.8671 m -32.656,-4888.8671 21.96,4888.8671 m -32.656,-4888.8671 21.96,4888.8671 m -32.6562,-4888.8671 21.9602,4888.8671 m -32.6562,-4888.8671 21.9602,4888.8671 m -32.6562,-4888.8671 21.96,4888.8671 m -32.656,-4888.8671 21.96,4888.8671 m -32.656,-4888.8671 21.96,4888.8671 m -32.6561,-4888.8671 21.96,4888.8671 m -32.656,-4888.8671 21.96,4888.8671 m -32.656,-4888.8671 21.96,4888.8671 m -32.6561,-4888.8671 21.9601,4888.8671 m -32.6562,-4888.8671 21.9602,4888.8671 m -32.6562,-4888.8671 21.96,4888.8671 m -32.656,-4888.8671 21.96,4888.8671 m -32.656,-4888.8671 21.96,4888.8671 m -32.656,-4888.8671 21.96,4888.8671 m -32.6561,-4888.8671 21.96,4888.8671 m -32.656,-4888.8671 21.96,4888.8671 m -32.6561,-4888.8671 21.9601,4888.8671 m -32.6562,-4888.8671 21.96,4888.8671 m -32.656,-4888.8671 21.96,4888.8671 m -32.6559,-4888.8671 21.9599,4888.8671 m -32.6559,-4888.8671 21.9599,4888.8671 m -32.6559,-4888.8671 21.96,4888.8671 m -32.6561,-4888.8671 21.9601,4888.8671 m -32.6562,-4888.8671 21.9601,4888.8671 m -32.6561,-4888.8671 21.9601,4888.8671 m -32.6561,-4888.8671 21.96,4888.8671 m -32.6561,-4888.8671 21.96,4888.8671 m -32.656,-4888.8671 21.96,4888.8671 m -32.656,-4888.8671 21.96,4888.8671 m -32.656,-4888.8671 21.96,4888.8671 m -32.656,-4888.8671 21.96,4888.8671 m -32.6562,-4888.8671 21.9601,4888.8671 m -32.6561,-4888.8671 21.9601,4888.8671 m -32.6561,-4888.8671 21.96,4888.8671 m -32.6561,-4888.8671 21.9601,4888.8671 m -32.6561,-4888.8671 21.96,4888.8671 m -32.656,-4888.8671 21.96,4888.8671 m -32.656,-4888.8671 21.96,4888.8671 m -32.656,-4888.8671 21.96,4888.8671 m -32.6562,-4888.8671 21.9602,4888.8671 m -32.6562,-4888.8671 21.96,4888.8671 m -32.656,-4888.8671 21.96,4888.8671 m 2705.5293,-4888.8671 21.96,4888.8671 m -32.656,-4888.8671 21.96,4888.8671 m -32.656,-4888.8671 21.9599,4888.8671 m -32.656,-4888.8671 21.96,4888.8671 m -32.656,-4888.8671 21.96,4888.8671 m -32.6561,-4888.8671 21.96,4888.8671 m -32.656,-4888.8671 21.96,4888.8671 m -32.656,-4888.8671 21.9599,4888.8671 m -32.656,-4888.8671 21.96,4888.8671 m -32.656,-4888.8671 21.96,4888.8671 m -32.6561,-4888.8671 21.96,4888.8671 m -32.656,-4888.8671 21.96,4888.8671 m -32.6561,-4888.8671 21.96,4888.8671 m -32.656,-4888.8671 21.96,4888.8671 m -32.656,-4888.8671 21.9599,4888.8671 m -32.656,-4888.8671 21.96,4888.8671 m -32.656,-4888.8671 21.96,4888.8671 m -32.656,-4888.8671 21.9599,4888.8671 m -32.656,-4888.8671 21.96,4888.8671 m -32.656,-4888.8671 21.96,4888.8671 m -32.6561,-4888.8671 21.96,4888.8671 m -32.656,-4888.8671 21.96,4888.8671 m -32.656,-4888.8671 21.96,4888.8671 m -32.6561,-4888.8671 21.96,4888.8671 m -32.656,-4888.8671 21.96,4888.8671 m -32.656,-4888.8671 21.9599,4888.8671 m -32.656,-4888.8671 21.96,4888.8671 m -32.656,-4888.8671 21.96,4888.8671 m -32.656,-4888.8671 21.9599,4888.8671 m -32.656,-4888.8671 21.96,4888.8671 m -32.656,-4888.8671 21.96,4888.8671 m -32.6561,-4888.8671 21.96,4888.8671 m -32.656,-4888.8671 21.96,4888.8671 m -32.656,-4888.8671 21.9599,4888.8671 m -32.656,-4888.8671 21.96,4888.8671 m -32.656,-4888.8671 21.96,4888.8671 m -32.656,-4888.8671 21.9599,4888.8671 m -32.656,-4888.8671 21.96,4888.8671 m -32.656,-4888.8671 21.96,4888.8671 m -32.6561,-4888.8671 21.96,4888.8671 m -32.656,-4888.8671 21.96,4888.8671 m -32.656,-4888.8671 21.96,4888.8671 m -32.6561,-4888.8671 21.96,4888.8671 m -32.656,-4888.8671 21.96,4888.8671 m -32.656,-4888.8671 21.9599,4888.8671 m -32.65605,-4888.8671 21.96005,4888.8671 m -32.65607,-4888.8671 21.96007,4888.8671 m -32.6561,-4888.8671 21.95995,4888.8671 m -32.65599,-4888.8671 21.95998,4888.8671 m -32.65602,-4888.8671 21.95999,4888.8671 m -32.65602,-4888.8671 21.95997,4888.8671 m -32.65601,-4888.8671 21.95998,4888.8671 m -32.65601,-4888.8671 21.95998,4888.8671 m -32.65603,-4888.8671 21.95998,4888.8671 m -32.65601,-4888.8671 21.95998,4888.8671 m -32.65601,-4888.8671 21.95998,4888.8671 m -32.65603,-4888.8671 21.95998,4888.8671 m -32.65601,-4888.8671 21.95998,4888.8671 m -32.65601,-4888.8671 21.95998,4888.8671 m -32.65603,-4888.8671 21.95999,4888.8671 m -32.65602,-4888.8671 21.95998,4888.8671 m -32.65601,-4888.8671 21.95997,4888.8671 m -32.65602,-4888.8671 21.95999,4888.8671 m -32.65602,-4888.8671 21.95998,4888.8671 m -32.65602,-4888.8671 21.95998,4888.8671 m -32.65601,-4888.8671 21.95998,4888.8671 m -32.65602,-4888.8671 21.95997,4888.8671 m -32.65601,-4888.8671 21.95998,4888.8671 m -32.65601,-4888.8671 21.95998,4888.8671 m -32.65603,-4888.8671 21.95998,4888.8671 m -32.65601,-4888.8671 21.95998,4888.8671 m -32.65601,-4888.8671 21.95998,4888.8671 m -32.65602,-4888.8671 21.95998,4888.8671 m -32.65602,-4888.8671 21.95998,4888.8671 m -32.65601,-4888.8671 21.95998,4888.8671 m -32.65602,-4888.8671 21.95999,4888.8671 m -32.65603,-4888.8671 21.95998,4888.8671 m -32.65601,-4888.8671 21.95998,4888.8671 m -32.65601,-4888.8671 21.95998,4888.8671 m -32.65603,-4888.8671 21.95998,4888.8671 m -32.65601,-4888.8671 21.95998,4888.8671 m -32.65601,-4888.8671 21.95997,4888.8671 m -32.65602,-4888.8671 21.95998,4888.8671 m -32.65601,-4888.8671 21.95998,4888.8671 m -32.65601,-4888.8671 21.95998,4888.8671 m -32.65603,-4888.8671 21.95999,4888.8671 m -32.65602,-4888.8671 21.95998,4888.8671 m -32.65601,-4888.8671 21.95998,4888.8671 m -32.65602,-4888.8671 21.95998,4888.8671 m -32.65602,-4888.8671 21.95998,4888.8671 m -32.65601,-4888.8671 21.95997,4888.8671 m -32.65601,-4888.8671 21.95998,4888.8671 m -32.65602,-4888.8671 21.95997,4888.8671 m -32.656,-4888.8671 21.95997,4888.8671 m -32.65601,-4888.8671 21.95998,4888.8671 m -32.65602,-4888.8671 21.95999,4888.8671 m -32.65603,-4888.8671 21.95998,4888.8671 m -32.65601,-4888.8671 21.95998,4888.8671 m -32.65602,-4888.8671 21.95999,4888.8671 m -32.65603,-4888.8671 21.95998,4888.8671 m -32.65601,-4888.8671 21.95998,4888.8671 m -32.65602,-4888.8671 21.95999,4888.8671 m -32.65604,-4888.8671 21.95999,4888.8671 m -32.65602,-4888.8671 21.95998,4888.8671 m -32.65601,-4888.8671 21.95997,4888.8671 m -32.65602,-4888.8671 21.95998,4888.8671 m -32.65601,-4888.8671 21.95997,4888.8671 m -32.65601,-4888.8671 21.95998,4888.8671 m -32.65602,-4888.8671 21.95999,4888.8671 m -32.65602,-4888.8671 21.95997,4888.8671 m -32.65601,-4888.8671 21.95998,4888.8671 m -32.65602,-4888.8671 21.95999,4888.8671 m -32.65603,-4888.8671 21.95998,4888.8671 m -32.65601,-4888.8671 21.95998,4888.8671 m -32.65601,-4888.8671 21.95998,4888.8671 m -32.65603,-4888.8671 21.95998,4888.8671 m -32.65601,-4888.8671 21.95998,4888.8671 m -32.65601,-4888.8671 21.95998,4888.8671 m -32.65603,-4888.8671 21.95998,4888.8671 m -32.65601,-4888.8671 21.95998,4888.8671 m -32.65601,-4888.8671 21.95997,4888.8671 m -32.65602,-4888.8671 21.95999,4888.8671 m -32.65602,-4888.8671 21.95997,4888.8671 m -32.65601,-4888.8671 21.95998,4888.8671 m -32.65602,-4888.8671 21.95999,4888.8671 m -32.65602,-4888.8671 21.95997,4888.8671 m -32.65601,-4888.8671 21.95998,4888.8671 m -32.65601,-4888.8671 21.95998,4888.8671" />
    <path
       d="m 2041.8599,-2459.5277 21.96,4888.8671 m -32.656,-4888.8671 21.9599,4888.8671 m -32.656,-4888.8671 21.96,4888.8671 m -32.656,-4888.8671 21.96,4888.8671 m -32.6561,-4888.8671 21.96,4888.8671 m -32.656,-4888.8671 21.96,4888.8671 m -32.656,-4888.8671 21.96,4888.8671 m -32.6561,-4888.8671 21.96,4888.8671 m -32.656,-4888.8671 21.96,4888.8671 m -32.656,-4888.8671 21.9599,4888.8671 m -32.656,-4888.8671 21.96,4888.8671 m -32.656,-4888.8671 21.96,4888.8671 m -32.656,-4888.8671 21.9599,4888.8671 m -32.656,-4888.8671 21.96,4888.8671 m -32.656,-4888.8671 21.96,4888.8671 m -32.6561,-4888.8671 21.96,4888.8671 m -32.656,-4888.8671 21.96,4888.8671 m -32.656,-4888.8671 21.9599,4888.8671 m -32.656,-4888.8671 21.96,4888.8671 m -32.656,-4888.8671 21.96,4888.8671 m -32.656,-4888.8671 21.9599,4888.8671 m -32.656,-4888.8671 21.96,4888.8671 m -32.656,-4888.8671 21.96,4888.8671 m -32.656,-4888.8671 21.9599,4888.8671 m -32.656,-4888.8671 21.96,4888.8671 m -32.656,-4888.8671 21.96,4888.8671 m -32.6561,-4888.8671 21.96,4888.8671 m -32.656,-4888.8671 21.96,4888.8671 m -32.656,-4888.8671 21.9599,4888.8671 m -32.656,-4888.8671 21.96,4888.8671 m -32.656,-4888.8671 21.96,4888.8671 m -32.656,-4888.8671 21.9599,4888.8671 m -32.656,-4888.8671 21.96,4888.8671 m -32.656,-4888.8671 21.96,4888.8671 m -32.6561,-4888.8671 21.9601,4888.8671 m -32.656,-4888.8671 21.96,4888.8671 m -32.656,-4888.8671 21.96,4888.8671 m -32.6561,-4888.8671 21.96,4888.8671 m -32.656,-4888.8671 21.96,4888.8671 m -32.656,-4888.8671 21.9599,4888.8671 m -32.656,-4888.8671 21.96,4888.8671 m -32.656,-4888.8671 21.96,4888.8671 m -32.656,-4888.8671 21.9599,4888.8671 m -32.6559,-4888.8671 21.9599,4888.8671 m -32.656,-4888.8671 21.96,4888.8671 m -32.656,-4888.8671 21.96,4888.8671 m -32.656,-4888.8671 21.9599,4888.8671 m -32.656,-4888.8671 21.96,4888.8671 m -32.656,-4888.8671 21.96,4888.8671 m -32.6561,-4888.8671 21.96,4888.8671 m -32.656,-4888.8671 21.96,4888.8671 m -32.656,-4888.8671 21.9599,4888.8671 m -32.6559,-4888.8671 21.9599,4888.8671 M 105.87731,-2459.5277 127.83729,2429.3394 M 95.181281,-2459.5277 117.14126,2429.3394 M 84.485251,-2459.5277 106.44523,2429.3394 m -32.656029,-4888.8671 21.95998,4888.8671 m -32.65601,-4888.8671 21.95998,4888.8671 m -32.65601,-4888.8671 21.95997,4888.8671 m -32.65602,-4888.8671 21.95999,4888.8671 m -32.65602,-4888.8671 21.95998,4888.8671 m -32.65601,-4888.8671 21.95997,4888.8671 M 9.612991,-2459.5277 31.572971,2429.3394 M -1.0830492,-2459.5277 20.876921,2429.3394 m -32.65601,-4888.8671 21.95998,4888.8671 m -32.65601,-4888.8671 21.9599798,4888.8671 m -32.6560198,-4888.8671 21.95997,4888.8671 m -32.65601,-4888.8671 21.95998,4888.8671 m -32.65601,-4888.8671 21.95998,4888.8671 m -32.65603,-4888.8671 21.96,4888.8671 m -32.65603,-4888.8671 21.95998,4888.8671 m -32.65601,-4888.8671 21.95998,4888.8671 m -32.656031,-4888.8671 21.959991,4888.8671 m -32.656031,-4888.8671 21.959991,4888.8671 m -32.656011,-4888.8671 21.95997,4888.8671 m -32.65599,-4888.8671 21.96,4888.8671 m -32.65602,-4888.8671 21.96,4888.8671 m -32.65602,-4888.8671 21.95987,4888.8671 m -32.65602,-4888.8671 21.96,4888.8671 m -32.65602,-4888.8671 21.96,4888.8671 m -32.65602,-4888.8671 21.96,4888.8671 m -32.65602,-4888.8671 21.96,4888.8671 m -32.65602,-4888.8671 21.96,4888.8671 m -32.65602,-4888.8671 21.96,4888.8671 m -32.65602,-4888.8671 21.95987,4888.8671 m -32.65589,-4888.8671 21.95987,4888.8671 m -32.65602,-4888.8671 21.96,4888.8671 m -32.65602,-4888.8671 21.96,4888.8671 m -32.65602,-4888.8671 21.96,4888.8671 m -32.65602,-4888.8671 21.96,4888.8671 m -32.65602,-4888.8671 21.96,4888.8671 m -32.65602,-4888.8671 21.96001,4888.8671 m -32.65603,-4888.8671 21.95987,4888.8671 m -32.65589,-4888.8671 21.95987,4888.8671 m -32.65602,-4888.8671 21.96,4888.8671 m -32.65602,-4888.8671 21.96,4888.8671 m -32.65602,-4888.8671 21.96,4888.8671 m -32.65602,-4888.8671 21.96001,4888.8671 m -32.65603,-4888.8671 21.96001,4888.8671 m -32.65603,-4888.8671 21.96001,4888.8671 m -32.65599,-4888.8671 21.95983,4888.8671 m -32.65603,-4888.8671 21.96001,4888.8671 m -32.65601,-4888.8671 21.96,4888.8671 m -32.656,-4888.8671 21.96,4888.8671 m -32.656,-4888.8671 21.96,4888.8671 m -32.6561,-4888.8671 21.96,4888.8671 m -32.656,-4888.8671 21.96,4888.8671 m -32.656,-4888.8671 21.9599,4888.8671 m -32.6559,-4888.8671 21.9598,4888.8671 m -32.656,-4888.8671 21.96,4888.8671 m -32.65604,-4888.8671 21.96004,4888.8671 m -32.65604,-4888.8671 21.96004,4888.8671 m -32.65604,-4888.8671 21.96,4888.8671 m -32.6561,-4888.8671 21.96,4888.8671 m -32.656,-4888.8671 21.96,4888.8671 m -32.656,-4888.8671 21.9599,4888.8671 m -32.656,-4888.8671 21.96,4888.8671 m -32.6561,-4888.8671 21.96,4888.8671 m -32.656,-4888.8671 21.96,4888.8671 m -32.656,-4888.8671 21.96,4888.8671 m -32.65624,-4888.8671 21.96024,4888.8671 m -32.65624,-4888.8671 21.96024,4888.8671 m -32.65624,-4888.8671 21.96,4888.8671 m -32.656,-4888.8671 21.96,4888.8671 m -32.6562,-4888.8671 21.9602,4888.8671 m -32.6562,-4888.8671 21.9601,4888.8671 m -32.6561,-4888.8671 21.96,4888.8671 m -32.6558,-4888.8671 21.9598,4888.8671 m -32.6558,-4888.8671 21.9598,4888.8671 m -32.6558,-4888.8671 21.96,4888.8671 m -32.656,-4888.8671 21.96,4888.8671 m -32.656,-4888.8671 21.96,4888.8671 m -32.6562,-4888.8671 21.9601,4888.8671 m -32.6561,-4888.8671 21.96,4888.8671 m -32.656,-4888.8671 21.96,4888.8671 m -32.656,-4888.8671 21.96,4888.8671 m -32.6561,-4888.8671 21.96,4888.8671 m -32.656,-4888.8671 21.96,4888.8671 m -32.656,-4888.8671 21.96,4888.8671 m -32.6562,-4888.8671 21.9602,4888.8671 m -32.6562,-4888.8671 21.9602,4888.8671 m -32.6562,-4888.8671 21.96,4888.8671 m -32.656,-4888.8671 21.96,4888.8671 m -32.656,-4888.8671 21.96,4888.8671 m -32.6561,-4888.8671 21.96,4888.8671 m -32.656,-4888.8671 21.96,4888.8671 m -32.656,-4888.8671 21.96,4888.8671 m -32.6561,-4888.8671 21.9601,4888.8671 m -32.6562,-4888.8671 21.9602,4888.8671 m -32.6562,-4888.8671 21.96,4888.8671 m -32.656,-4888.8671 21.96,4888.8671 m -32.656,-4888.8671 21.96,4888.8671 m -32.656,-4888.8671 21.96,4888.8671 m -32.6561,-4888.8671 21.96,4888.8671 m -32.656,-4888.8671 21.96,4888.8671 m -32.6561,-4888.8671 21.9601,4888.8671 m -32.6562,-4888.8671 21.96,4888.8671 m -32.656,-4888.8671 21.96,4888.8671 m -32.6559,-4888.8671 21.9599,4888.8671 m -32.6559,-4888.8671 21.9599,4888.8671 m -32.6559,-4888.8671 21.96,4888.8671 m -32.6561,-4888.8671 21.9601,4888.8671 m -32.6562,-4888.8671 21.9601,4888.8671 m -32.6561,-4888.8671 21.9601,4888.8671 m -32.6561,-4888.8671 21.96,4888.8671 m -32.6561,-4888.8671 21.96,4888.8671 m -32.656,-4888.8671 21.96,4888.8671 m -32.656,-4888.8671 21.96,4888.8671 m -32.656,-4888.8671 21.96,4888.8671 m -32.656,-4888.8671 21.96,4888.8671 m -32.6562,-4888.8671 21.9601,4888.8671 m -32.6561,-4888.8671 21.9601,4888.8671 m -32.6561,-4888.8671 21.96,4888.8671 m -32.6561,-4888.8671 21.9601,4888.8671 m -32.6561,-4888.8671 21.96,4888.8671 m -32.656,-4888.8671 21.96,4888.8671 m -32.656,-4888.8671 21.96,4888.8671 m -32.656,-4888.8671 21.96,4888.8671 m -32.6562,-4888.8671 21.9602,4888.8671 m -32.6562,-4888.8671 21.96,4888.8671 m -32.656,-4888.8671 21.96,4888.8671 m 2705.5293,-4888.8671 21.96,4888.8671 m -32.656,-4888.8671 21.96,4888.8671 m -32.656,-4888.8671 21.9599,4888.8671 m -32.656,-4888.8671 21.96,4888.8671 m -32.656,-4888.8671 21.96,4888.8671 m -32.6561,-4888.8671 21.96,4888.8671 m -32.656,-4888.8671 21.96,4888.8671 m -32.656,-4888.8671 21.9599,4888.8671 m -32.656,-4888.8671 21.96,4888.8671 m -32.656,-4888.8671 21.96,4888.8671 m -32.6561,-4888.8671 21.96,4888.8671 m -32.656,-4888.8671 21.96,4888.8671 m -32.6561,-4888.8671 21.96,4888.8671 m -32.656,-4888.8671 21.96,4888.8671 m -32.656,-4888.8671 21.9599,4888.8671 m -32.656,-4888.8671 21.96,4888.8671 m -32.656,-4888.8671 21.96,4888.8671 m -32.656,-4888.8671 21.9599,4888.8671 m -32.656,-4888.8671 21.96,4888.8671 m -32.656,-4888.8671 21.96,4888.8671 m -32.6561,-4888.8671 21.96,4888.8671 m -32.656,-4888.8671 21.96,4888.8671 m -32.656,-4888.8671 21.96,4888.8671 m -32.6561,-4888.8671 21.96,4888.8671 m -32.656,-4888.8671 21.96,4888.8671 m -32.656,-4888.8671 21.9599,4888.8671 m -32.656,-4888.8671 21.96,4888.8671 m -32.656,-4888.8671 21.96,4888.8671 m -32.656,-4888.8671 21.9599,4888.8671 m -32.656,-4888.8671 21.96,4888.8671 m -32.656,-4888.8671 21.96,4888.8671 m -32.6561,-4888.8671 21.96,4888.8671 m -32.656,-4888.8671 21.96,4888.8671 m -32.656,-4888.8671 21.9599,4888.8671 m -32.656,-4888.8671 21.96,4888.8671 m -32.656,-4888.8671 21.96,4888.8671 m -32.656,-4888.8671 21.9599,4888.8671 m -32.656,-4888.8671 21.96,4888.8671 m -32.656,-4888.8671 21.96,4888.8671 m -32.6561,-4888.8671 21.96,4888.8671 m -32.656,-4888.8671 21.96,4888.8671 m -32.656,-4888.8671 21.96,4888.8671 m -32.6561,-4888.8671 21.96,4888.8671 m -32.656,-4888.8671 21.96,4888.8671 m -32.656,-4888.8671 21.9599,4888.8671 m -32.65605,-4888.8671 21.96005,4888.8671 m -32.65607,-4888.8671 21.96007,4888.8671 m -32.6561,-4888.8671 21.95995,4888.8671 m -32.65599,-4888.8671 21.95998,4888.8671 m -32.65602,-4888.8671 21.95999,4888.8671 m -32.65602,-4888.8671 21.95997,4888.8671 m -32.65601,-4888.8671 21.95998,4888.8671 m -32.65601,-4888.8671 21.95998,4888.8671 m -32.65603,-4888.8671 21.95998,4888.8671 m -32.65601,-4888.8671 21.95998,4888.8671 m -32.65601,-4888.8671 21.95998,4888.8671 m -32.65603,-4888.8671 21.95998,4888.8671 m -32.65601,-4888.8671 21.95998,4888.8671 m -32.65601,-4888.8671 21.95998,4888.8671 m -32.65603,-4888.8671 21.95999,4888.8671 m -32.65602,-4888.8671 21.95998,4888.8671 m -32.65601,-4888.8671 21.95997,4888.8671 m -32.65602,-4888.8671 21.95999,4888.8671 m -32.65602,-4888.8671 21.95998,4888.8671 m -32.65602,-4888.8671 21.95998,4888.8671 m -32.65601,-4888.8671 21.95998,4888.8671 m -32.65602,-4888.8671 21.95997,4888.8671 m -32.65601,-4888.8671 21.95998,4888.8671 m -32.65601,-4888.8671 21.95998,4888.8671 m -32.65603,-4888.8671 21.95998,4888.8671 m -32.65601,-4888.8671 21.95998,4888.8671 m -32.65601,-4888.8671 21.95998,4888.8671 m -32.65602,-4888.8671 21.95998,4888.8671 m -32.65602,-4888.8671 21.95998,4888.8671 m -32.65601,-4888.8671 21.95998,4888.8671 m -32.65602,-4888.8671 21.95999,4888.8671 m -32.65603,-4888.8671 21.95998,4888.8671 m -32.65601,-4888.8671 21.95998,4888.8671 m -32.65601,-4888.8671 21.95998,4888.8671 m -32.65603,-4888.8671 21.95998,4888.8671 m -32.65601,-4888.8671 21.95998,4888.8671 m -32.65601,-4888.8671 21.95997,4888.8671 m -32.65602,-4888.8671 21.95998,4888.8671 m -32.65601,-4888.8671 21.95998,4888.8671 m -32.65601,-4888.8671 21.95998,4888.8671 m -32.65603,-4888.8671 21.95999,4888.8671 m -32.65602,-4888.8671 21.95998,4888.8671 m -32.65601,-4888.8671 21.95998,4888.8671 m -32.65602,-4888.8671 21.95998,4888.8671 m -32.65602,-4888.8671 21.95998,4888.8671 m -32.65601,-4888.8671 21.95997,4888.8671 m -32.65601,-4888.8671 21.95998,4888.8671 m -32.65602,-4888.8671 21.95997,4888.8671 m -32.656,-4888.8671 21.95997,4888.8671 m -32.65601,-4888.8671 21.95998,4888.8671 m -32.65602,-4888.8671 21.95999,4888.8671 m -32.65603,-4888.8671 21.95998,4888.8671 m -32.65601,-4888.8671 21.95998,4888.8671 m -32.65602,-4888.8671 21.95999,4888.8671 m -32.65603,-4888.8671 21.95998,4888.8671 m -32.65601,-4888.8671 21.95998,4888.8671 m -32.65602,-4888.8671 21.95999,4888.8671 m -32.65604,-4888.8671 21.95999,4888.8671 m -32.65602,-4888.8671 21.95998,4888.8671 m -32.65601,-4888.8671 21.95997,4888.8671 m -32.65602,-4888.8671 21.95998,4888.8671 m -32.65601,-4888.8671 21.95997,4888.8671 m -32.65601,-4888.8671 21.95998,4888.8671 m -32.65602,-4888.8671 21.95999,4888.8671 m -32.65602,-4888.8671 21.95997,4888.8671 m -32.65601,-4888.8671 21.95998,4888.8671 m -32.65602,-4888.8671 21.95999,4888.8671 m -32.65603,-4888.8671 21.95998,4888.8671 m -32.65601,-4888.8671 21.95998,4888.8671 m -32.65601,-4888.8671 21.95998,4888.8671 m -32.65603,-4888.8671 21.95998,4888.8671 m -32.65601,-4888.8671 21.95998,4888.8671 m -32.65601,-4888.8671 21.95998,4888.8671 m -32.65603,-4888.8671 21.95998,4888.8671 m -32.65601,-4888.8671 21.95998,4888.8671 m -32.65601,-4888.8671 21.95997,4888.8671 m -32.65602,-4888.8671 21.95999,4888.8671 m -32.65602,-4888.8671 21.95997,4888.8671 m -32.65601,-4888.8671 21.95998,4888.8671 m -32.65602,-4888.8671 21.95999,4888.8671 m -32.65602,-4888.8671 21.95997,4888.8671 m -32.65601,-4888.8671 21.95998,4888.8671 m -32.65601,-4888.8671 21.95998,4888.8671"
       style="opacity:0.13486843;fill:none;stroke:#ffffff;stroke-width:2.60543108px;stroke-linecap:butt;stroke-linejoin:miter;stroke-opacity:1"
       id="path2881" />
    <path
       id="path2883"
       style="opacity:0.13486843;fill:none;stroke:#000000;stroke-width:2.60543108px;stroke-linecap:butt;stroke-linejoin:miter;stroke-opacity:1"
       d="m 2043.8599,-2459.5277 21.96,4888.8671 m -32.656,-4888.8671 21.9599,4888.8671 m -32.656,-4888.8671 21.96,4888.8671 m -32.656,-4888.8671 21.96,4888.8671 m -32.6561,-4888.8671 21.96,4888.8671 m -32.656,-4888.8671 21.96,4888.8671 m -32.656,-4888.8671 21.96,4888.8671 m -32.6561,-4888.8671 21.96,4888.8671 m -32.656,-4888.8671 21.96,4888.8671 m -32.656,-4888.8671 21.9599,4888.8671 m -32.656,-4888.8671 21.96,4888.8671 m -32.656,-4888.8671 21.96,4888.8671 m -32.656,-4888.8671 21.9599,4888.8671 m -32.656,-4888.8671 21.96,4888.8671 m -32.656,-4888.8671 21.96,4888.8671 m -32.6561,-4888.8671 21.96,4888.8671 m -32.656,-4888.8671 21.96,4888.8671 m -32.656,-4888.8671 21.9599,4888.8671 m -32.656,-4888.8671 21.96,4888.8671 m -32.656,-4888.8671 21.96,4888.8671 m -32.656,-4888.8671 21.9599,4888.8671 m -32.656,-4888.8671 21.96,4888.8671 m -32.656,-4888.8671 21.96,4888.8671 m -32.656,-4888.8671 21.9599,4888.8671 m -32.656,-4888.8671 21.96,4888.8671 m -32.656,-4888.8671 21.96,4888.8671 m -32.6561,-4888.8671 21.96,4888.8671 m -32.656,-4888.8671 21.96,4888.8671 m -32.656,-4888.8671 21.9599,4888.8671 m -32.656,-4888.8671 21.96,4888.8671 m -32.656,-4888.8671 21.96,4888.8671 m -32.656,-4888.8671 21.9599,4888.8671 m -32.656,-4888.8671 21.96,4888.8671 m -32.656,-4888.8671 21.96,4888.8671 m -32.6561,-4888.8671 21.9601,4888.8671 m -32.656,-4888.8671 21.96,4888.8671 m -32.656,-4888.8671 21.96,4888.8671 m -32.6561,-4888.8671 21.96,4888.8671 m -32.656,-4888.8671 21.96,4888.8671 m -32.656,-4888.8671 21.9599,4888.8671 m -32.656,-4888.8671 21.96,4888.8671 m -32.656,-4888.8671 21.96,4888.8671 m -32.656,-4888.8671 21.9599,4888.8671 m -32.6559,-4888.8671 21.9599,4888.8671 m -32.656,-4888.8671 21.96,4888.8671 m -32.656,-4888.8671 21.96,4888.8671 m -32.656,-4888.8671 21.9599,4888.8671 m -32.656,-4888.8671 21.96,4888.8671 m -32.656,-4888.8671 21.96,4888.8671 m -32.6561,-4888.8671 21.96,4888.8671 m -32.656,-4888.8671 21.96,4888.8671 m -32.656,-4888.8671 21.9599,4888.8671 m -32.6559,-4888.8671 21.9599,4888.8671 M 107.87731,-2459.5277 129.83729,2429.3394 M 97.18128,-2459.5277 119.14126,2429.3394 M 86.485251,-2459.5277 108.44523,2429.3394 M 75.789201,-2459.5277 97.74918,2429.3394 m -32.656009,-4888.8671 21.95998,4888.8671 m -32.65601,-4888.8671 21.95997,4888.8671 m -32.65602,-4888.8671 21.95999,4888.8671 m -32.65602,-4888.8671 21.95998,4888.8671 m -32.65601,-4888.8671 21.95997,4888.8671 m -32.65601,-4888.8671 21.95998,4888.8671 M 0.9169508,-2459.5277 22.876921,2429.3394 m -32.65601,-4888.8671 21.95998,4888.8671 m -32.65601,-4888.8671 21.9599798,4888.8671 m -32.6560198,-4888.8671 21.95997,4888.8671 m -32.65601,-4888.8671 21.95998,4888.8671 m -32.65601,-4888.8671 21.95998,4888.8671 m -32.65603,-4888.8671 21.96,4888.8671 m -32.65603,-4888.8671 21.95998,4888.8671 m -32.65601,-4888.8671 21.95998,4888.8671 m -32.656031,-4888.8671 21.959991,4888.8671 m -32.656031,-4888.8671 21.959991,4888.8671 m -32.656011,-4888.8671 21.95997,4888.8671 m -32.65599,-4888.8671 21.96,4888.8671 m -32.65602,-4888.8671 21.96,4888.8671 m -32.65602,-4888.8671 21.95987,4888.8671 m -32.65602,-4888.8671 21.96,4888.8671 m -32.65602,-4888.8671 21.96,4888.8671 m -32.65602,-4888.8671 21.96,4888.8671 m -32.65602,-4888.8671 21.96,4888.8671 m -32.65602,-4888.8671 21.96,4888.8671 m -32.65602,-4888.8671 21.96,4888.8671 m -32.65602,-4888.8671 21.95987,4888.8671 m -32.65589,-4888.8671 21.95987,4888.8671 m -32.65602,-4888.8671 21.96,4888.8671 m -32.65602,-4888.8671 21.96,4888.8671 m -32.65602,-4888.8671 21.96,4888.8671 m -32.65602,-4888.8671 21.96,4888.8671 m -32.65602,-4888.8671 21.96,4888.8671 m -32.65602,-4888.8671 21.96001,4888.8671 m -32.65603,-4888.8671 21.95987,4888.8671 m -32.65589,-4888.8671 21.95987,4888.8671 m -32.65602,-4888.8671 21.96,4888.8671 m -32.65602,-4888.8671 21.96,4888.8671 m -32.65602,-4888.8671 21.96,4888.8671 m -32.65602,-4888.8671 21.96001,4888.8671 m -32.65603,-4888.8671 21.96001,4888.8671 m -32.65603,-4888.8671 21.96001,4888.8671 m -32.65599,-4888.8671 21.95983,4888.8671 m -32.65603,-4888.8671 21.96001,4888.8671 m -32.65601,-4888.8671 21.96,4888.8671 m -32.656,-4888.8671 21.96,4888.8671 m -32.656,-4888.8671 21.96,4888.8671 m -32.6561,-4888.8671 21.96,4888.8671 m -32.656,-4888.8671 21.96,4888.8671 m -32.656,-4888.8671 21.9599,4888.8671 m -32.6559,-4888.8671 21.9598,4888.8671 m -32.656,-4888.8671 21.96,4888.8671 m -32.65604,-4888.8671 21.96004,4888.8671 m -32.65604,-4888.8671 21.96004,4888.8671 m -32.65604,-4888.8671 21.96,4888.8671 m -32.6561,-4888.8671 21.96,4888.8671 m -32.656,-4888.8671 21.96,4888.8671 m -32.656,-4888.8671 21.9599,4888.8671 m -32.656,-4888.8671 21.96,4888.8671 m -32.6561,-4888.8671 21.96,4888.8671 m -32.656,-4888.8671 21.96,4888.8671 m -32.656,-4888.8671 21.96,4888.8671 m -32.65624,-4888.8671 21.96024,4888.8671 m -32.65624,-4888.8671 21.96024,4888.8671 m -32.65624,-4888.8671 21.96,4888.8671 m -32.656,-4888.8671 21.96,4888.8671 m -32.6562,-4888.8671 21.9602,4888.8671 m -32.6562,-4888.8671 21.9601,4888.8671 m -32.6561,-4888.8671 21.96,4888.8671 m -32.6558,-4888.8671 21.9598,4888.8671 m -32.6558,-4888.8671 21.9598,4888.8671 m -32.6558,-4888.8671 21.96,4888.8671 m -32.656,-4888.8671 21.96,4888.8671 m -32.656,-4888.8671 21.96,4888.8671 m -32.6562,-4888.8671 21.9601,4888.8671 m -32.6561,-4888.8671 21.96,4888.8671 m -32.656,-4888.8671 21.96,4888.8671 m -32.656,-4888.8671 21.96,4888.8671 m -32.6561,-4888.8671 21.96,4888.8671 m -32.656,-4888.8671 21.96,4888.8671 m -32.656,-4888.8671 21.96,4888.8671 m -32.6562,-4888.8671 21.9602,4888.8671 m -32.6562,-4888.8671 21.9602,4888.8671 m -32.6562,-4888.8671 21.96,4888.8671 m -32.656,-4888.8671 21.96,4888.8671 m -32.656,-4888.8671 21.96,4888.8671 m -32.6561,-4888.8671 21.96,4888.8671 m -32.656,-4888.8671 21.96,4888.8671 m -32.656,-4888.8671 21.96,4888.8671 m -32.6561,-4888.8671 21.9601,4888.8671 m -32.6562,-4888.8671 21.9602,4888.8671 m -32.6562,-4888.8671 21.96,4888.8671 m -32.656,-4888.8671 21.96,4888.8671 m -32.656,-4888.8671 21.96,4888.8671 m -32.656,-4888.8671 21.96,4888.8671 m -32.6561,-4888.8671 21.96,4888.8671 m -32.656,-4888.8671 21.96,4888.8671 m -32.6561,-4888.8671 21.9601,4888.8671 m -32.6562,-4888.8671 21.96,4888.8671 m -32.656,-4888.8671 21.96,4888.8671 m -32.6559,-4888.8671 21.9599,4888.8671 m -32.6559,-4888.8671 21.9599,4888.8671 m -32.6559,-4888.8671 21.96,4888.8671 m -32.6561,-4888.8671 21.9601,4888.8671 m -32.6562,-4888.8671 21.9601,4888.8671 m -32.6561,-4888.8671 21.9601,4888.8671 m -32.6561,-4888.8671 21.96,4888.8671 m -32.6561,-4888.8671 21.96,4888.8671 m -32.656,-4888.8671 21.96,4888.8671 m -32.656,-4888.8671 21.96,4888.8671 m -32.656,-4888.8671 21.96,4888.8671 m -32.656,-4888.8671 21.96,4888.8671 m -32.6562,-4888.8671 21.9601,4888.8671 m -32.6561,-4888.8671 21.9601,4888.8671 m -32.6561,-4888.8671 21.96,4888.8671 m -32.6561,-4888.8671 21.9601,4888.8671 m -32.6561,-4888.8671 21.96,4888.8671 m -32.656,-4888.8671 21.96,4888.8671 m -32.656,-4888.8671 21.96,4888.8671 m -32.656,-4888.8671 21.96,4888.8671 m -32.6562,-4888.8671 21.9602,4888.8671 m -32.6562,-4888.8671 21.96,4888.8671 m -32.656,-4888.8671 21.96,4888.8671 m 2705.5293,-4888.8671 21.96,4888.8671 m -32.656,-4888.8671 21.96,4888.8671 m -32.656,-4888.8671 21.9599,4888.8671 m -32.656,-4888.8671 21.96,4888.8671 m -32.656,-4888.8671 21.96,4888.8671 m -32.6561,-4888.8671 21.96,4888.8671 m -32.656,-4888.8671 21.96,4888.8671 m -32.656,-4888.8671 21.9599,4888.8671 m -32.656,-4888.8671 21.96,4888.8671 m -32.656,-4888.8671 21.96,4888.8671 m -32.6561,-4888.8671 21.96,4888.8671 m -32.656,-4888.8671 21.96,4888.8671 m -32.6561,-4888.8671 21.96,4888.8671 m -32.656,-4888.8671 21.96,4888.8671 m -32.656,-4888.8671 21.9599,4888.8671 m -32.656,-4888.8671 21.96,4888.8671 m -32.656,-4888.8671 21.96,4888.8671 m -32.656,-4888.8671 21.9599,4888.8671 m -32.656,-4888.8671 21.96,4888.8671 m -32.656,-4888.8671 21.96,4888.8671 m -32.6561,-4888.8671 21.96,4888.8671 m -32.656,-4888.8671 21.96,4888.8671 m -32.656,-4888.8671 21.96,4888.8671 m -32.6561,-4888.8671 21.96,4888.8671 m -32.656,-4888.8671 21.96,4888.8671 m -32.656,-4888.8671 21.9599,4888.8671 m -32.656,-4888.8671 21.96,4888.8671 m -32.656,-4888.8671 21.96,4888.8671 m -32.656,-4888.8671 21.9599,4888.8671 m -32.656,-4888.8671 21.96,4888.8671 m -32.656,-4888.8671 21.96,4888.8671 m -32.6561,-4888.8671 21.96,4888.8671 m -32.656,-4888.8671 21.96,4888.8671 m -32.656,-4888.8671 21.9599,4888.8671 m -32.656,-4888.8671 21.96,4888.8671 m -32.656,-4888.8671 21.96,4888.8671 m -32.656,-4888.8671 21.9599,4888.8671 m -32.656,-4888.8671 21.96,4888.8671 m -32.656,-4888.8671 21.96,4888.8671 m -32.6561,-4888.8671 21.96,4888.8671 m -32.656,-4888.8671 21.96,4888.8671 m -32.656,-4888.8671 21.96,4888.8671 m -32.6561,-4888.8671 21.96,4888.8671 m -32.656,-4888.8671 21.96,4888.8671 m -32.656,-4888.8671 21.9599,4888.8671 m -32.656,-4888.8671 21.96,4888.8671 m -32.65607,-4888.8671 21.96007,4888.8671 m -32.6561,-4888.8671 21.96,4888.8671 m -32.65604,-4888.8671 21.95998,4888.8671 m -32.65602,-4888.8671 21.95999,4888.8671 m -32.65602,-4888.8671 21.95997,4888.8671 m -32.65601,-4888.8671 21.95998,4888.8671 m -32.65601,-4888.8671 21.95998,4888.8671 m -32.65603,-4888.8671 21.95998,4888.8671 m -32.65601,-4888.8671 21.95998,4888.8671 m -32.65601,-4888.8671 21.95998,4888.8671 m -32.65603,-4888.8671 21.95998,4888.8671 m -32.65601,-4888.8671 21.95998,4888.8671 m -32.65601,-4888.8671 21.95998,4888.8671 m -32.65603,-4888.8671 21.95999,4888.8671 m -32.65602,-4888.8671 21.95998,4888.8671 m -32.65601,-4888.8671 21.95997,4888.8671 m -32.65602,-4888.8671 21.95999,4888.8671 m -32.65602,-4888.8671 21.95998,4888.8671 m -32.65602,-4888.8671 21.95998,4888.8671 m -32.65601,-4888.8671 21.95998,4888.8671 m -32.65602,-4888.8671 21.95997,4888.8671 m -32.65601,-4888.8671 21.95998,4888.8671 m -32.65601,-4888.8671 21.95998,4888.8671 m -32.65603,-4888.8671 21.95998,4888.8671 m -32.65601,-4888.8671 21.95998,4888.8671 m -32.65601,-4888.8671 21.95998,4888.8671 m -32.65602,-4888.8671 21.95998,4888.8671 m -32.65602,-4888.8671 21.95998,4888.8671 m -32.65601,-4888.8671 21.95998,4888.8671 m -32.65602,-4888.8671 21.95999,4888.8671 m -32.65603,-4888.8671 21.95998,4888.8671 m -32.65601,-4888.8671 21.95998,4888.8671 m -32.65601,-4888.8671 21.95998,4888.8671 m -32.65603,-4888.8671 21.95998,4888.8671 m -32.65601,-4888.8671 21.95998,4888.8671 m -32.65601,-4888.8671 21.95997,4888.8671 m -32.65602,-4888.8671 21.95998,4888.8671 m -32.65601,-4888.8671 21.95998,4888.8671 m -32.65601,-4888.8671 21.95998,4888.8671 m -32.65603,-4888.8671 21.95999,4888.8671 m -32.65602,-4888.8671 21.95998,4888.8671 m -32.65601,-4888.8671 21.95998,4888.8671 m -32.65602,-4888.8671 21.95998,4888.8671 m -32.65602,-4888.8671 21.95998,4888.8671 m -32.65601,-4888.8671 21.95997,4888.8671 m -32.65601,-4888.8671 21.95998,4888.8671 m -32.65602,-4888.8671 21.95997,4888.8671 m -32.656,-4888.8671 21.95997,4888.8671 m -32.65601,-4888.8671 21.95998,4888.8671 m -32.65602,-4888.8671 21.95999,4888.8671 m -32.65603,-4888.8671 21.95998,4888.8671 m -32.65601,-4888.8671 21.95998,4888.8671 m -32.65602,-4888.8671 21.95999,4888.8671 m -32.65603,-4888.8671 21.95998,4888.8671 m -32.65601,-4888.8671 21.95998,4888.8671 m -32.65602,-4888.8671 21.95999,4888.8671 m -32.65604,-4888.8671 21.95999,4888.8671 m -32.65602,-4888.8671 21.95998,4888.8671 m -32.65601,-4888.8671 21.95997,4888.8671 m -32.65602,-4888.8671 21.95998,4888.8671 m -32.65601,-4888.8671 21.95997,4888.8671 m -32.65601,-4888.8671 21.95998,4888.8671 m -32.65602,-4888.8671 21.95999,4888.8671 m -32.65602,-4888.8671 21.95997,4888.8671 m -32.65601,-4888.8671 21.95998,4888.8671 m -32.65602,-4888.8671 21.95999,4888.8671 m -32.65603,-4888.8671 21.95998,4888.8671 m -32.65601,-4888.8671 21.95998,4888.8671 m -32.65601,-4888.8671 21.95998,4888.8671 m -32.65603,-4888.8671 21.95998,4888.8671 m -32.65601,-4888.8671 21.95998,4888.8671 m -32.65601,-4888.8671 21.95998,4888.8671 m -32.65603,-4888.8671 21.95998,4888.8671 m -32.65601,-4888.8671 21.95998,4888.8671 m -32.65601,-4888.8671 21.95997,4888.8671 m -32.65602,-4888.8671 21.95999,4888.8671 m -32.65602,-4888.8671 21.95997,4888.8671 m -32.65601,-4888.8671 21.95998,4888.8671 m -32.65602,-4888.8671 21.95999,4888.8671 m -32.65602,-4888.8671 21.95997,4888.8671 m -32.65601,-4888.8671 21.95998,4888.8671 m -32.65601,-4888.8671 21.95998,4888.8671" />
  </g>
  <g
     inkscape:groupmode="layer"
     id="layer3"
     inkscape:label="Layer#2"
     style="display:inline"
     sodipodi:insensitive="true">
    <rect
       style="opacity:0.44078944;fill:url(#radialGradient4174);fill-opacity:1;stroke:none;display:inline"
       id="rect4166"
       width="1915.0184"
       height="1195.0184"
       x="2.4907773"
       y="2.4907901" />
  </g>
  <g
     inkscape:groupmode="layer"
     id="layer5"
     inkscape:label="Layer#4"
     style="display:inline"
     sodipodi:insensitive="true">
    <text
       id="text4920"
       y="640.8233"
       x="702.97931"
       style="font-size:108.99375153px;font-style:normal;font-variant:normal;font-weight:normal;font-stretch:normal;fill:#000000;fill-opacity:1;stroke:none;display:inline;filter:url(#filter4928);font-family:Dustismo;-inkscape-font-specification:Dustismo"
       xml:space="preserve"><tspan
         y="640.8233"
         x="702.97931"
         id="tspan4922"
         sodipodi:role="line">sidux:moros</tspan></text>
    <text
       xml:space="preserve"
       style="font-size:108.99375153px;font-style:normal;font-variant:normal;font-weight:normal;font-stretch:normal;fill:#ffffff;fill-opacity:1;stroke:none;display:inline;font-family:Dustismo;-inkscape-font-specification:Dustismo"
       x="702.97931"
       y="640.8233"
       id="text4890"><tspan
         sodipodi:role="line"
         id="tspan4892"
         x="702.97931"
         y="640.8233">sidux:moros</tspan></text>
  </g>
  <g
     inkscape:groupmode="layer"
     id="layer6"
     inkscape:label="Layer#5"
     style="display:inline" />
</svg>
